<?xml version="1.0" encoding="UTF-8" standalone="no"?>
<!-- Created with Inkscape (http://www.inkscape.org/) -->

<svg
   width="32"
   height="32"
   viewBox="0 0 8.4666659 8.4666669"
   version="1.1"
   id="svg5"
   inkscape:version="1.1.1 (3bf5ae0d25, 2021-09-20)"
   sodipodi:docname="app_icon.svg"
   xmlns:inkscape="http://www.inkscape.org/namespaces/inkscape"
   xmlns:sodipodi="http://sodipodi.sourceforge.net/DTD/sodipodi-0.dtd"
   xmlns="http://www.w3.org/2000/svg"
   xmlns:svg="http://www.w3.org/2000/svg">
  <sodipodi:namedview
     id="namedview7"
     pagecolor="#ffffff"
     bordercolor="#666666"
     borderopacity="1.0"
     inkscape:pageshadow="2"
     inkscape:pageopacity="0.0"
     inkscape:pagecheckerboard="0"
     inkscape:document-units="px"
     showgrid="true"
     units="px"
     inkscape:zoom="1.8116735"
     inkscape:cx="46.917946"
     inkscape:cy="-16.835263"
     inkscape:window-width="1857"
     inkscape:window-height="1095"
     inkscape:window-x="630"
     inkscape:window-y="285"
     inkscape:window-maximized="0"
     inkscape:current-layer="layer1"
     showborder="true">
    <inkscape:grid
       type="xygrid"
       id="grid824"
       visible="true" />
  </sodipodi:namedview>
  <defs
     id="defs2">
    <pattern
       id="EMFhbasepattern"
       patternUnits="userSpaceOnUse"
       width="6"
       height="6"
       x="0"
       y="0" />
  </defs>
  <g
     inkscape:label="Layer 1"
     inkscape:groupmode="layer"
     id="layer1">
    <circle
       style="fill:#808080;fill-opacity:0.02;stroke:none;stroke-width:0.529167;stroke-linecap:round;stroke-linejoin:bevel"
       id="path3099"
       cx="4.2333331"
       cy="4.2333331"
       r="3.4395831" />
    <path
       id="path960"
       style="fill:#5794f2;stroke:none;stroke-width:2;stroke-linecap:round;stroke-linejoin:bevel;fill-opacity:1"
       d="M 16 3 A 12.999999 12.999999 0 0 0 3 16 A 12.999999 12.999999 0 0 0 16 29 A 12.999999 12.999999 0 0 0 29 16 A 12.999999 12.999999 0 0 0 16 3 z M 16 6 A 10 10 0 0 1 26 16 A 10 10 0 0 1 16 26 A 10 10 0 0 1 6 16 A 10 10 0 0 1 16 6 z "
       transform="scale(0.26458332)" />
    <path
       id="circle4775"
       style="fill:#a1cc70;fill-opacity:1;stroke-width:6.66977"
       d="M 16 1 A 15 15 0 0 0 1 16 A 15 15 0 0 0 16 31 A 15 15 0 0 0 31 16 A 15 15 0 0 0 16 1 z M 16 4 A 12 12 0 0 1 28 16 A 12 12 0 0 1 16 28 A 12 12 0 0 1 4 16 A 12 12 0 0 1 16 4 z "
       transform="scale(0.26458332)" />
    <text
       xml:space="preserve"
       style="font-style:normal;font-weight:normal;font-size:10.5833px;line-height:1.25;font-family:sans-serif;fill:#000000;fill-opacity:1;stroke:none;stroke-width:0.264583"
       x="2.6458333"
       y="4.4979162"
       id="text4662"><tspan
         sodipodi:role="line"
         id="tspan4660"
         style="stroke-width:0.264583" /></text>
  </g>
</svg>
